<?xml version="1.0" encoding="UTF-8" standalone="no"?>
<svg width="194px" height="39px" viewBox="0 0 194 39" version="1.1" xmlns="http://www.w3.org/2000/svg" xmlns:xlink="http://www.w3.org/1999/xlink">
    <!-- Generator: Sketch 39.1 (31720) - http://www.bohemiancoding.com/sketch -->
    <title>logo</title>
    <desc>Created with Sketch.</desc>
    <defs></defs>
    <g id="header_symbol" stroke="none" stroke-width="1" fill="none" fill-rule="evenodd">
        <g id="Header-Menu-b" transform="translate(-15.000000, -6.000000)">
            <g id="logo" transform="translate(15.000000, 6.000000)">
                <g id="symbol" fill="#4990E2">
                    <path d="M17.4874123,2.74209609 C17.149386,2.74209609 16.8924123,2.82009609 16.764386,2.89322109 L3.20434211,10.6173539 C2.84114035,10.8245414 2.45614035,11.4549398 2.45614035,11.8431117 L2.45614035,27.2804086 C2.45614035,27.6676664 2.84328947,28.2977602 3.20925439,28.5067758 L16.7880263,36.2293852 C16.9178947,36.3034242 17.1748684,36.3814242 17.5125877,36.3814242 C17.850614,36.3814242 18.1075877,36.3034242 18.235614,36.2302992 L31.7956579,28.5064711 C32.1588596,28.2989789 32.5438596,27.6688852 32.5438596,27.2804086 L32.5438596,11.8431117 C32.5438596,11.4561586 32.1567105,10.8257602 31.7907456,10.6170492 L18.2119737,2.89413516 C18.0821053,2.82009609 17.8251316,2.74209609 17.4874123,2.74209609 M17.5125877,38.8189242 C16.7941667,38.8189242 16.1027632,38.6501273 15.5651754,38.3436117 L1.98640351,30.6206977 C0.853201754,29.9738461 0,28.5384633 0,27.2804086 L0,11.8431117 C0,10.5835336 0.851359649,9.14784609 1.98087719,8.50373672 L15.5409211,0.779908594 C16.0772807,0.473697656 16.7689912,0.304596094 17.4874123,0.304596094 C18.2058333,0.304596094 18.8972368,0.473697656 19.4348246,0.780213281 L33.0135965,8.50282266 C34.1467982,9.14936953 35,10.585057 35,11.8431117 L35,27.2804086 C35,28.5399867 34.1486404,29.9756742 33.0194298,30.6197836 L19.4590789,38.3439164 C18.9227193,38.6501273 18.2310088,38.8189242 17.5125877,38.8189242" id="Fill-3"></path>
                    <path d="M15.3984035,27.8672367 L15.3984035,18.8064398 L18.2975702,18.8064398 L18.2975702,16.7394398 L15.3984035,16.7394398 L15.3984035,15.484432 C15.3984035,14.2434398 15.7247632,13.2870258 16.3774825,12.6148852 C17.0305088,11.9430492 17.9509474,11.6072836 19.1394123,11.6072836 C19.3675263,11.6072836 19.5953333,11.6261742 19.8234474,11.6636508 C20.0515614,11.701432 20.3140614,11.7547523 20.6112544,11.823307 L20.3831404,14.0033461 C20.2379211,13.9692211 20.0997632,13.9417992 19.9686667,13.9213852 C19.8372632,13.9006664 19.6819123,13.890307 19.502307,13.890307 C19.1151579,13.890307 18.8216491,14.0292445 18.6214737,14.3068148 C18.4209912,14.5843852 18.3209035,14.9771273 18.3209035,15.484432 L18.3209035,16.7394398 L21.3520877,16.7394398 L21.3520877,18.8064398 L18.3209035,18.8064398 L18.3209035,27.8672367 L15.3984035,27.8672367 Z" id="Fill-1"></path>
                </g>
                <g id="text_logo" transform="translate(58.000000, 13.000000)" fill="#1779F3">
                    <path d="M2.6318,2.7627 L2.6318,5.1487 L6.3328,5.1487 C6.5958,5.1487 6.7438,5.2957 6.7438,5.5597 L6.7438,7.2697 C6.7438,7.5337 6.5958,7.6817 6.3328,7.6817 L2.6318,7.6817 L2.6318,11.3327 C2.6318,11.5957 2.4838,11.7437 2.2208,11.7437 L0.4108,11.7437 C0.1478,11.7437 -0.0002,11.5957 -0.0002,11.3327 L-0.0002,0.6407 C-0.0002,0.3777 0.1478,0.2297 0.4108,0.2297 L2.6318,0.2297 L6.4148,0.2297 C6.6778,0.2297 6.8268,0.3777 6.8268,0.6407 L6.8268,2.3517 C6.8268,2.6157 6.6778,2.7627 6.4148,2.7627 L2.6318,2.7627 Z" id="Fill-1"></path>
                    <path d="M23.9287,9.6221 L23.9287,11.3331 C23.9287,11.5961 23.7807,11.7441 23.5177,11.7441 L18.6647,11.7441 L17.7607,11.7441 C17.4967,11.7441 17.3487,11.5961 17.3487,11.3331 L17.3487,0.6411 C17.3487,0.3781 17.4967,0.2291 17.7607,0.2291 L19.5697,0.2291 C19.8327,0.2291 19.9807,0.3781 19.9807,0.6411 L19.9807,9.2111 L23.5177,9.2111 C23.7807,9.2111 23.9287,9.3591 23.9287,9.6221" id="Fill-4"></path>
                    <path d="M41.0317,9.6221 L41.0317,11.3331 C41.0317,11.5961 40.8837,11.7441 40.6207,11.7441 L34.9457,11.7441 L34.5337,11.7441 C34.2707,11.7441 34.1227,11.5961 34.1227,11.3331 L34.1227,0.6411 C34.1227,0.3781 34.2707,0.2291 34.5337,0.2291 L36.7547,0.2291 L40.5377,0.2291 C40.8017,0.2291 40.9497,0.3781 40.9497,0.6411 L40.9497,2.3511 C40.9497,2.6151 40.8017,2.7631 40.5377,2.7631 L36.7547,2.7631 L36.7547,4.6871 L40.1267,4.6871 C40.3897,4.6871 40.5377,4.8361 40.5377,5.0991 L40.5377,6.7441 C40.5377,7.0071 40.3897,7.1551 40.1267,7.1551 L36.7547,7.1551 L36.7547,9.2111 L40.6207,9.2111 C40.8837,9.2111 41.0317,9.3591 41.0317,9.6221" id="Fill-6"></path>
                    <path d="M57.2847,7.4678 L55.9957,3.1088 L54.7077,7.4678 L57.2847,7.4678 Z M60.9307,11.7438 L58.9077,11.7438 C58.6777,11.7438 58.5127,11.6458 58.4467,11.3988 L58.0137,9.9348 L53.9777,9.9348 L53.5447,11.3988 C53.4797,11.6458 53.3147,11.7438 53.0847,11.7438 L51.0617,11.7438 C50.7647,11.7438 50.6177,11.5798 50.7157,11.2828 L54.2027,0.5748 C54.2687,0.3448 54.4497,0.2298 54.6807,0.2298 L57.3117,0.2298 C57.5427,0.2298 57.7227,0.3448 57.7887,0.5748 L61.2767,11.2828 C61.3747,11.5798 61.2267,11.7438 60.9307,11.7438 L60.9307,11.7438 Z" id="Fill-8"></path>
                    <path d="M74.085,5.6582 L75.894,5.6582 C76.618,5.6582 77.21,5.0162 77.21,4.1782 C77.21,3.3392 76.618,2.6972 75.894,2.6972 L74.085,2.6972 L74.085,5.6582 Z M80.763,11.2342 C80.977,11.4982 80.862,11.7442 80.516,11.7442 L78.411,11.7442 C78.197,11.7442 78.033,11.6792 77.901,11.4982 L75.099,7.9612 L74.085,7.9612 L74.085,11.3332 C74.085,11.5962 73.937,11.7442 73.673,11.7442 L71.864,11.7442 C71.601,11.7442 71.453,11.5962 71.453,11.3332 L71.453,0.6412 C71.453,0.3782 71.601,0.2302 71.864,0.2302 L74.085,0.2302 L75.894,0.2302 C78.082,0.2302 79.842,1.9902 79.842,4.1782 C79.842,5.5582 79.022,6.8162 77.806,7.4762 L80.763,11.2342 L80.763,11.2342 Z" id="Fill-10"></path>
                    <path d="M91.269,0.2295 L93.079,0.2295 C93.341,0.2295 93.49,0.3775 93.49,0.6405 L93.49,11.3335 C93.49,11.5955 93.341,11.7445 93.079,11.7445 L91.269,11.7445 C91.005,11.7445 90.858,11.5955 90.858,11.3335 L90.858,0.6405 C90.858,0.3775 91.005,0.2295 91.269,0.2295" id="Fill-12"></path>
                    <path d="M111.0044,0.2295 L112.8144,0.2295 C113.0764,0.2295 113.2254,0.3775 113.2254,0.6405 L113.2254,11.3335 C113.2254,11.5955 113.0764,11.7445 112.8144,11.7445 L111.5794,11.7445 C111.3654,11.7445 111.1854,11.6625 111.0694,11.4805 L107.1394,5.3295 L107.1394,11.3335 C107.1394,11.5955 106.9904,11.7445 106.7284,11.7445 L104.9184,11.7445 C104.6544,11.7445 104.5074,11.5955 104.5074,11.3335 L104.5074,0.6405 C104.5074,0.3775 104.6544,0.2295 104.9184,0.2295 L106.1514,0.2295 C106.3654,0.2295 106.5464,0.3125 106.6614,0.4935 L110.5934,6.6445 L110.5934,0.6405 C110.5934,0.3775 110.7404,0.2295 111.0044,0.2295" id="Fill-14"></path>
                    <path d="M135.3774,5.8555 L135.3774,7.7475 L135.3774,11.3335 C135.3774,11.5955 135.2294,11.7445 134.9664,11.7445 L133.3204,11.7445 C133.0584,11.7445 132.9094,11.5955 132.9094,11.3335 L132.9094,10.4005 C132.1334,11.4325 130.9384,11.9745 129.4054,11.9745 C126.1984,11.9745 123.7474,9.3755 123.7474,5.9875 C123.7474,2.5985 126.2644,0.0005 129.7344,0.0005 C132.3504,0.0005 134.5704,1.6115 135.2454,3.7165 C135.3444,3.9975 135.1954,4.1775 134.8994,4.1775 L132.9594,4.1775 C132.7294,4.1775 132.5974,4.0795 132.4814,3.8815 C132.0054,3.1415 130.9524,2.5655 129.7344,2.5655 C127.6954,2.5655 126.3794,3.9305 126.3794,5.9875 C126.3794,8.2085 127.7944,9.5735 129.7344,9.5735 C130.9714,9.5735 132.2074,9.0565 132.6744,7.7475 L130.1954,7.7475 C129.9334,7.7475 129.7844,7.5985 129.7844,7.3355 L129.7844,5.8555 C129.7844,5.5915 129.9334,5.4445 130.1954,5.4445 L134.9664,5.4445 C135.2294,5.4445 135.3774,5.5915 135.3774,5.8555" id="Fill-16"></path>
                </g>
            </g>
        </g>
    </g>
</svg>